<svg xmlns="http://www.w3.org/2000/svg" width="24" height="24" viewBox="0 0 24 24" fill="none">
    <path
        d="M3.80106 13.4531V9.283H3V7.97983H3.80106V3.8097H7.48443C10.3706 3.8097 12.08 5.52681 12.08 8.58159V8.59309C12.08 11.6517 10.3744 13.4493 7.48443 13.4493H3.80106V13.4531ZM5.82097 11.782H7.24296C9.04056 11.782 10.0218 10.6858 10.0218 8.60075V8.58925C10.0218 6.57701 9.00607 5.47698 7.24296 5.47698H5.82097V7.98366H7.27745V9.28683H5.82097V11.7858V11.782ZM19.1976 6.80315C18.0937 3.48391 14.7477 2.85915 12.6204 3.02397C12.2793 3.0508 12.0378 3.36126 12.0953 3.69855C12.1452 3.98984 12.4058 4.19682 12.6971 4.17765C13.9313 4.0895 17.009 4.17765 18.0554 7.02545L17.0819 7.20943L19.0443 9.16418L20.2056 6.61151L19.1976 6.80315ZM11.9344 19.2982C11.9152 19.0031 11.6737 18.7693 11.3786 18.7616C10.3437 18.7348 8.02869 18.4627 6.85967 16.6497L7.79489 16.2856L6.28091 15.2469L5.62167 14.7946L5.51435 14.7218L5.49135 14.8138L5.23838 15.8257L4.83593 17.4431L5.76731 17.079C6.84051 18.8996 8.82209 19.647 10.474 19.8578C10.7807 19.8961 11.072 19.9153 11.3441 19.9191C11.6852 19.9268 11.9574 19.6393 11.9344 19.302V19.2982ZM17.423 14.4113L17.1624 14.3577V12.0311C17.7986 12.1768 18.1896 12.5562 18.2815 13.1427L18.293 13.204H20.0792L20.0638 13.089C19.9373 11.621 18.8603 10.6897 17.1624 10.5057V9.35965H15.9358V10.498C14.1957 10.682 13.0344 11.7015 13.0344 13.181V13.1963C13.0344 14.6145 13.9428 15.4424 15.7289 15.8142L15.9358 15.8602V18.2748C15.1693 18.133 14.7937 17.7229 14.6902 17.171L14.6787 17.0982H12.8964V17.1978C13.0037 18.6965 14.1804 19.624 15.9358 19.8003V21H17.1624V19.8003C18.9561 19.624 20.2056 18.6466 20.2056 17.033V17.0177C20.2056 15.5689 19.2819 14.8061 17.423 14.4113ZM14.901 13.0507V13.0354C14.901 12.5639 15.2459 12.1653 15.9358 12.0235V14.0894C15.1884 13.8709 14.901 13.5336 14.901 13.0507ZM18.339 17.217C18.339 17.7612 17.9788 18.1714 17.1624 18.2978V16.1285C18.0592 16.3623 18.339 16.6804 18.339 17.2055V17.217Z"
        fill="#656E78" />
</svg>