<svg xmlns="http://www.w3.org/2000/svg" width="24" height="24" viewBox="0 0 24 24" fill="none">
    <path
        d="M11.9646 17.8152C11.9649 16.8267 12.2275 15.8565 12.7249 15.0068C13.2222 14.157 13.9359 13.4591 14.7908 12.9864C15.6457 12.5137 16.6103 12.2838 17.583 12.3207C18.5557 12.3577 19.5006 12.6602 20.3184 13.1965C20.3241 12.7891 20.3272 12.3543 20.3272 11.8852C20.3272 9.47305 20.2464 7.96758 20.0868 6.4082H20.1095C20.0212 5.53927 19.6945 4.71297 19.1664 4.0234C18.6384 3.33382 17.9303 2.8087 17.1227 2.50781C17.08 2.49141 17.0373 2.47578 16.9942 2.46094C16.6751 2.352 16.3452 2.27903 16.0103 2.24336L15.9784 2.23984C14.701 2.10664 14.496 2 11.8023 2C9.10859 2 8.67278 2.10664 7.39652 2.2418L7.36459 2.24531C7.0131 2.2828 6.66705 2.36145 6.33335 2.47969V2.46211C5.5013 2.7494 4.7678 3.27295 4.21982 3.9707C3.67183 4.66844 3.33233 5.51111 3.24156 6.39883C3.08155 7.96133 3 9.46836 3 11.8852C3 14.302 3.08155 15.809 3.24156 17.3715C3.35082 18.4377 3.81786 19.4334 4.56431 20.1913C5.31076 20.9493 6.2912 21.4235 7.34113 21.5344L7.37306 21.5379C8.65047 21.673 8.8551 21.7797 11.5488 21.7797C12.4412 21.7797 13.0874 21.768 13.5947 21.7473C13.0781 21.2357 12.6676 20.6242 12.3876 19.9489C12.1076 19.2735 11.9638 18.548 11.9646 17.8152ZM7.46422 7.20117H15.8615C16.1045 7.20117 16.3375 7.2992 16.5093 7.4737C16.6812 7.6482 16.7777 7.88486 16.7777 8.13164C16.7777 8.37842 16.6812 8.61508 16.5093 8.78958C16.3375 8.96408 16.1045 9.06211 15.8615 9.06211H7.46614C7.22314 9.06211 6.9901 8.96408 6.81827 8.78958C6.64644 8.61508 6.54991 8.37842 6.54991 8.13164C6.54991 7.88486 6.64644 7.6482 6.81827 7.4737C6.9901 7.2992 7.22314 7.20117 7.46614 7.20117H7.46422ZM7.46422 13.0437C7.22442 13.0388 6.9961 12.9385 6.82824 12.7645C6.66039 12.5905 6.56638 12.3567 6.56638 12.1131C6.56638 11.8695 6.66039 11.6356 6.82824 11.4616C6.9961 11.2877 7.22442 11.1874 7.46422 11.1824H12.2535C12.3754 11.1799 12.4966 11.2021 12.61 11.2477C12.7233 11.2933 12.8266 11.3615 12.9137 11.4482C13.0008 11.5348 13.07 11.6383 13.1173 11.7525C13.1645 11.8666 13.1889 11.9892 13.1889 12.1131C13.1889 12.2369 13.1645 12.3595 13.1173 12.4737C13.07 12.5879 13.0008 12.6913 12.9137 12.778C12.8266 12.8647 12.7233 12.9328 12.61 12.9785C12.4966 13.0241 12.3754 13.0463 12.2535 13.0437H7.46422Z"
        fill="#656E78" />
    <path
        d="M17.3795 13.6306C16.5645 13.6306 15.7678 13.876 15.0902 14.3359C14.4125 14.7957 13.8844 15.4493 13.5725 16.2139C13.2606 16.9786 13.179 17.82 13.338 18.6318C13.497 19.4436 13.8894 20.1892 14.4657 20.7745C15.042 21.3597 15.7763 21.7583 16.5756 21.9197C17.3749 22.0812 18.2035 21.9983 18.9565 21.6816C19.7094 21.3649 20.353 20.8285 20.8058 20.1403C21.2586 19.4521 21.5002 18.643 21.5002 17.8154C21.5002 16.7055 21.0661 15.6411 20.2933 14.8563C19.5205 14.0715 18.4724 13.6306 17.3795 13.6306ZM19.0127 18.4279H17.2976C17.1675 18.4279 17.0428 18.3754 16.9508 18.282C16.8588 18.1886 16.8072 18.0619 16.8072 17.9298V15.2541C16.8072 15.122 16.8588 14.9953 16.9508 14.9019C17.0428 14.8085 17.1675 14.756 17.2976 14.756C17.4277 14.756 17.5524 14.8085 17.6444 14.9019C17.7363 14.9953 17.788 15.122 17.788 15.2541V17.4318H19.0127C19.1428 17.4318 19.2675 17.4843 19.3595 17.5777C19.4515 17.6711 19.5032 17.7977 19.5032 17.9298C19.5032 18.0619 19.4515 18.1886 19.3595 18.282C19.2675 18.3754 19.1428 18.4279 19.0127 18.4279Z"
        fill="#656E78" />
</svg>