<svg xmlns="http://www.w3.org/2000/svg" width="24" height="24" viewBox="0 0 24 24" fill="none">
    <path
        d="M11.47 7.79C11.54 7.86 11.63 7.91 11.72 7.95C11.81 7.99 11.91 8.01 12.01 8.01C12.11 8.01 12.21 7.99 12.3 7.95C12.39 7.91 12.48 7.86 12.55 7.79L14.27 6.1C14.42 5.95 14.5 5.76 14.5 5.55C14.5 5.34 14.42 5.15 14.27 5C14.12 4.85 13.93 4.77 13.72 4.77C13.51 4.77 13.32 4.85 13.17 5L12.76 5.44V2.75C12.76 2.55 12.68 2.36 12.54 2.22C12.4 2.08 12.21 2 12.01 2C11.81 2 11.62 2.08 11.48 2.22C11.34 2.36 11.26 2.55 11.26 2.75V5.45L10.85 5.01C10.7 4.86 10.51 4.78 10.3 4.78C10.09 4.78 9.9 4.86 9.75 5.01C9.6 5.16 9.52 5.35 9.52 5.56C9.52 5.77 9.6 5.96 9.75 6.11L11.47 7.8V7.79ZM19.91 6.42H16.22L15.03 7.75H19.71C20.14 7.75 20.49 8.1 20.49 8.53C20.49 8.96 20.14 9.31 19.71 9.31H4.29C3.86 9.31 3.51 8.96 3.51 8.53C3.51 8.1 3.86 7.75 4.29 7.75H9.06L7.79 6.42H4.09C2.94 6.42 2 7.36 2 8.51V18.7C2 19.86 2.94 20.79 4.09 20.79H19.91C21.06 20.79 22 19.86 22 18.7V8.51C22 7.36 21.06 6.42 19.91 6.42ZM10.94 13.86C11.04 13.96 11.17 14.04 11.34 14.11C11.41 14.14 11.5 14.16 11.58 14.2C11.66 14.22 11.75 14.24 11.85 14.26C12.03 14.31 12.2 14.34 12.37 14.37C12.45 14.39 12.54 14.41 12.62 14.42C12.83 14.47 13.04 14.52 13.24 14.58C13.53 14.67 13.78 14.79 14.01 14.93C14.24 15.08 14.42 15.27 14.55 15.51C14.69 15.75 14.76 16.04 14.76 16.39C14.76 16.68 14.69 16.95 14.58 17.21C14.46 17.47 14.29 17.7 14.06 17.9C13.84 18.11 13.58 18.27 13.27 18.39C13.07 18.47 12.85 18.52 12.62 18.55V19.47H11.58V18.5C11.14 18.44 10.74 18.28 10.4 18.05C9.89 17.7 9.5 17.19 9.24 16.53L10.41 16.21C10.51 16.53 10.66 16.77 10.86 16.94C11.06 17.1 11.28 17.22 11.53 17.28C11.55 17.28 11.56 17.29 11.58 17.29C11.81 17.35 12.03 17.37 12.25 17.37C12.38 17.37 12.5 17.35 12.62 17.33C12.71 17.31 12.8 17.29 12.88 17.25C13.06 17.18 13.21 17.07 13.32 16.94C13.43 16.8 13.48 16.64 13.48 16.46C13.48 16.29 13.43 16.15 13.34 16.05C13.25 15.95 13.12 15.86 12.96 15.81C12.85 15.77 12.75 15.74 12.62 15.71C12.56 15.69 12.5 15.67 12.44 15.66C12.25 15.61 12.05 15.57 11.85 15.52C11.75 15.5 11.66 15.47 11.58 15.45C11.36 15.39 11.15 15.33 10.94 15.26C10.65 15.18 10.4 15.06 10.19 14.92C9.98 14.77 9.8 14.58 9.69 14.35C9.56 14.11 9.5 13.81 9.5 13.42C9.5 13.05 9.61 12.71 9.81 12.4C10.01 12.09 10.31 11.84 10.69 11.66C10.95 11.52 11.25 11.44 11.58 11.4V10.47H12.62V11.42C13.07 11.5 13.45 11.67 13.77 11.93C14.23 12.3 14.56 12.79 14.76 13.41L13.63 13.72C13.48 13.31 13.26 13.01 13 12.83C12.89 12.76 12.76 12.71 12.62 12.67C12.42 12.61 12.2 12.57 11.94 12.57C11.82 12.57 11.7 12.58 11.58 12.61C11.53 12.61 11.47 12.63 11.41 12.65C11.23 12.7 11.08 12.79 10.96 12.92C10.85 13.06 10.79 13.24 10.79 13.48C10.79 13.63 10.84 13.76 10.94 13.86Z"
        fill="#4AD325" />
    <en2vi-host xmlns="http://www.w3.org/1999/xhtml" class="corom-element" version="3"
        style="all: initial; position: absolute; top: 0; left: 0; right: 0; height: 0; margin: 0; text-align: left; z-index: 10000000000; pointer-events: none; border: none; display: block">
    </en2vi-host>
    <savior-host xmlns="http://www.w3.org/1999/xhtml"
        style="all: unset; position: absolute; top: 0; z-index: 99999999999999; display: block !important; overflow: unset">
    </savior-host>
</svg>