<svg xmlns="http://www.w3.org/2000/svg" width="25" height="24" viewBox="0 0 25 24" fill="none">
    <path
        d="M12.8564 15.7199C12.7864 15.6499 12.6964 15.5999 12.6064 15.5599C12.5164 15.5199 12.4164 15.4999 12.3164 15.4999C12.2164 15.4999 12.1164 15.5199 12.0264 15.5599C11.9364 15.5999 11.8464 15.6499 11.7764 15.7199L10.0564 17.4099C9.90642 17.5599 9.82642 17.7499 9.82642 17.9599C9.82642 18.1699 9.90642 18.3599 10.0564 18.5099C10.2064 18.6599 10.3964 18.7399 10.6064 18.7399C10.8164 18.7399 11.0064 18.6599 11.1564 18.5099L11.5664 18.0699V20.7699C11.5664 20.9699 11.6464 21.1599 11.7864 21.2999C11.9264 21.4399 12.1164 21.5199 12.3164 21.5199C12.5164 21.5199 12.7064 21.4399 12.8464 21.2999C12.9864 21.1599 13.0664 20.9699 13.0664 20.7699V18.0699L13.4764 18.5099C13.6264 18.6599 13.8164 18.7399 14.0264 18.7399C14.2364 18.7399 14.4264 18.6599 14.5764 18.5099C14.7264 18.3599 14.8064 18.1699 14.8064 17.9599C14.8064 17.7499 14.7264 17.5599 14.5764 17.4099L12.8564 15.7199ZM20.2364 2.41992H4.41642C3.26642 2.41992 2.32642 3.34992 2.32642 4.50992V14.6999C2.32642 15.8499 3.26642 16.7899 4.41642 16.7899H8.10641L9.29642 15.4599H4.61642C4.18642 15.4599 3.83642 15.1099 3.83642 14.6799C3.83642 14.2499 4.18642 13.8999 4.61642 13.8999H20.0364C20.4664 13.8999 20.8164 14.2499 20.8164 14.6799C20.8164 15.1099 20.4664 15.4599 20.0364 15.4599H15.2564L16.5364 16.7899H20.2364C21.3864 16.7899 22.3264 15.8499 22.3264 14.6999V4.50992C22.3264 3.34992 21.3864 2.41992 20.2364 2.41992ZM11.2664 7.07992C11.3664 7.17992 11.4964 7.26992 11.6664 7.32992C11.7364 7.36992 11.8164 7.38992 11.9064 7.42992C11.9864 7.44992 12.0764 7.46992 12.1664 7.48992C12.3564 7.52992 12.5264 7.56992 12.6964 7.59992C12.7764 7.61992 12.8664 7.62992 12.9464 7.64992C13.1564 7.69992 13.3664 7.74992 13.5664 7.80992C13.8564 7.89992 14.1064 8.01992 14.3364 8.15992C14.5564 8.30992 14.7464 8.49992 14.8764 8.72992C15.0064 8.96992 15.0864 9.26992 15.0864 9.61992C15.0864 9.90992 15.0164 10.1799 14.9064 10.4399C14.7864 10.6999 14.6064 10.9299 14.3864 11.1299C14.1564 11.3399 13.9064 11.4999 13.5964 11.6199C13.3964 11.6999 13.1764 11.7499 12.9464 11.7799V12.6999H11.9064V11.7299C11.4664 11.6699 11.0664 11.5099 10.7164 11.2699C10.2164 10.9199 9.82642 10.4199 9.56642 9.75992L10.7364 9.42992C10.8364 9.75992 10.9864 9.99992 11.1864 10.1699C11.3864 10.3299 11.6064 10.4499 11.8564 10.5099C11.8664 10.5099 11.8864 10.5199 11.9064 10.5199C12.1364 10.5699 12.3564 10.5999 12.5664 10.5999C12.7064 10.5999 12.8264 10.5799 12.9464 10.5599C13.0364 10.5399 13.1164 10.5199 13.2064 10.4799C13.3864 10.4099 13.5364 10.2999 13.6464 10.1699C13.7564 10.0199 13.8064 9.86992 13.8064 9.68992C13.8064 9.51992 13.7564 9.36992 13.6664 9.26992C13.5664 9.16992 13.4464 9.08992 13.2864 9.02992C13.1764 8.99992 13.0664 8.96992 12.9464 8.92992C12.8864 8.91992 12.8264 8.89992 12.7664 8.87992C12.5664 8.83992 12.3664 8.79992 12.1664 8.74992C12.0764 8.71992 11.9864 8.69992 11.9064 8.66992C11.6864 8.61992 11.4664 8.55992 11.2664 8.48992C10.9764 8.40992 10.7264 8.28992 10.5164 8.14992C10.3064 7.99992 10.1264 7.80992 10.0164 7.57992C9.88641 7.33992 9.82642 7.02992 9.82642 6.64992C9.82642 6.26992 9.92642 5.92992 10.1364 5.62992C10.3364 5.31992 10.6364 5.06992 11.0164 4.87992C11.2764 4.74992 11.5664 4.66992 11.9064 4.62992V3.69992H12.9464V4.64992C13.3964 4.72992 13.7764 4.88992 14.0964 5.15992C14.5564 5.52992 14.8864 6.01992 15.0864 6.62992L13.9564 6.94992C13.8064 6.52992 13.5864 6.22992 13.3164 6.05992C13.2164 5.98992 13.0864 5.92992 12.9464 5.89992C12.7464 5.82992 12.5164 5.79992 12.2664 5.79992C12.1464 5.79992 12.0264 5.80992 11.9064 5.82992C11.8564 5.82992 11.7964 5.85992 11.7364 5.87992C11.5564 5.92992 11.4064 6.01992 11.2864 6.14992C11.1664 6.27992 11.1164 6.46992 11.1164 6.70992C11.1164 6.85992 11.1664 6.97992 11.2664 7.07992Z"
        fill="#F35353" />
    <en2vi-host xmlns="http://www.w3.org/1999/xhtml" class="corom-element" version="3"
        style="all: initial; position: absolute; top: 0; left: 0; right: 0; height: 0; margin: 0; text-align: left; z-index: 10000000000; pointer-events: none; border: none; display: block">
    </en2vi-host>
    <savior-host xmlns="http://www.w3.org/1999/xhtml"
        style="all: unset; position: absolute; top: 0; z-index: 99999999999999; display: block !important; overflow: unset">
    </savior-host>
</svg>