<svg xmlns="http://www.w3.org/2000/svg" width="24" height="24" viewBox="0 0 24 24" fill="none">
    <path fill-rule="evenodd" clip-rule="evenodd"
        d="M15.6228 10.2227C14.6864 11.1593 13.5403 11.634 12.2168 11.634C10.8936 11.634 9.74764 11.1592 8.81106 10.2229C7.87449 9.28647 7.39964 8.14055 7.39964 6.81686C7.39964 5.49347 7.87449 4.34755 8.81091 3.41112C9.74734 2.4747 10.8931 2 12.2168 2C13.5402 2 14.6861 2.4747 15.6227 3.41097C16.5593 4.3477 17.034 5.49363 17.034 6.81686C17.034 8.14055 16.5593 9.28632 15.6228 10.2227ZM20.4835 16.1152C20.5639 16.5641 20.6185 16.9892 20.6455 17.3789C20.6722 17.7598 20.6858 18.1573 20.686 18.5602C20.686 19.6047 20.3541 20.45 19.6995 21.0729C19.053 21.6881 18.198 22 17.158 22H7.52796C6.48793 22 5.63268 21.688 4.98632 21.0729C4.33188 20.4496 4 19.6044 4 18.5604C4 18.1592 4.01343 17.7621 4.03998 17.3794C4.06699 16.9888 4.12161 16.5635 4.20202 16.1152C4.2832 15.6629 4.38772 15.2355 4.51269 14.8448C4.64208 14.4406 4.81786 14.0418 5.035 13.6596C5.26021 13.263 5.52526 12.9177 5.82234 12.6333C6.13347 12.3356 6.51417 12.0965 6.95393 11.9224C7.39231 11.7488 7.87814 11.6607 8.39816 11.6607C8.60232 11.6607 8.79992 11.7445 9.18078 11.9928C9.41896 12.1479 9.69362 12.3249 9.99712 12.5189C10.2588 12.6858 10.6137 12.8422 11.0516 12.9837C11.4798 13.1221 11.9139 13.1922 12.3425 13.1922C12.7711 13.1922 13.2054 13.1221 13.6331 12.9837C14.0715 12.8421 14.4264 12.6857 14.6884 12.5187C14.9948 12.323 15.2693 12.146 15.504 11.9929C15.8853 11.7447 16.0827 11.6609 16.2869 11.6609C16.8068 11.6609 17.2927 11.7488 17.7313 11.9223C18.1713 12.0967 18.5519 12.3358 18.8627 12.6332C19.1599 12.9174 19.4248 13.2629 19.6504 13.6596C19.8676 14.0418 20.0434 14.4407 20.1727 14.8446C20.2978 15.2354 20.4023 15.6629 20.4835 16.1152Z"
        fill="#656E78" />
</svg>