<svg xmlns="http://www.w3.org/2000/svg" width="24" height="24" viewBox="0 0 24 24" fill="none">
    <path fill-rule="evenodd" clip-rule="evenodd"
        d="M17.7299 2.99012L12.6299 8.09012H9.67993L15.4299 2.34012C15.8899 1.88012 16.6299 1.88012 17.0899 2.34012L17.7299 2.98012V2.99012ZM4.29 9.65001C3.86 9.65001 3.52 9.31001 3.52 8.87001C3.52 8.43001 3.86 8.10001 4.29 8.10001H7.45L8.79 6.76001H4.09C2.94 6.76001 2 7.70001 2 8.85001V19.05C2 20.2 2.94 21.14 4.09 21.14H19.91C21.07 21.14 22 20.2 22 19.05V9.65001H4.29ZM8.26 14.28C8.36 14.38 8.49 14.46 8.66 14.53C8.68912 14.5425 8.7217 14.5532 8.75559 14.5644C8.80315 14.5801 8.85328 14.5967 8.9 14.62C8.98 14.64 9.07 14.66 9.17 14.68C9.35 14.73 9.52 14.76 9.69 14.79C9.77 14.81 9.86 14.83 9.94 14.84L9.94007 14.84C10.15 14.89 10.36 14.94 10.56 15C10.85 15.09 11.1 15.21 11.33 15.35C11.56 15.5 11.74 15.69 11.87 15.93C12.01 16.17 12.08 16.46 12.08 16.81C12.08 17.1 12.01 17.37 11.9 17.63C11.78 17.89 11.61 18.12 11.38 18.32C11.16 18.53 10.9 18.69 10.59 18.81C10.39 18.89 10.17 18.94 9.94 18.97V19.89H8.9V18.92C8.46 18.86 8.06 18.7 7.72 18.47C7.21 18.12 6.82 17.61 6.56 16.95L7.73 16.63C7.83 16.95 7.98 17.19 8.18 17.36C8.38 17.52 8.6 17.64 8.85 17.7H8.9C9.13 17.76 9.35 17.78 9.57 17.78C9.7 17.78 9.82 17.76 9.94 17.74L9.94001 17.74C10.03 17.72 10.12 17.7 10.2 17.66C10.38 17.59 10.53 17.48 10.64 17.35C10.75 17.21 10.8 17.05 10.8 16.87C10.8 16.7 10.75 16.56 10.66 16.46C10.57 16.36 10.44 16.27 10.28 16.22C10.17 16.18 10.07 16.15 9.94 16.12C9.88 16.1 9.82 16.08 9.76 16.07C9.65532 16.0425 9.5476 16.0179 9.43851 15.9931L9.43845 15.9931L9.43835 15.9931C9.3495 15.9729 9.25975 15.9524 9.17 15.93C9.10589 15.9172 9.04589 15.9003 8.99 15.8845C8.95871 15.8757 8.92871 15.8672 8.9 15.86C8.68 15.8 8.47 15.74 8.26 15.67C7.97 15.59 7.72 15.47 7.51 15.33C7.3 15.18 7.12 14.99 7.01 14.76C6.88 14.52 6.82 14.22 6.82 13.83C6.82 13.46 6.93 13.12 7.13 12.81C7.33 12.5 7.63 12.25 8.01 12.07C8.27 11.93 8.57 11.85 8.9 11.81V10.88H9.94V11.83C10.39 11.91 10.77 12.08 11.09 12.34C11.55 12.71 11.88 13.2 12.08 13.82L10.95 14.13C10.8 13.72 10.58 13.42 10.32 13.24C10.21 13.17 10.08 13.12 9.94 13.08C9.74 13.02 9.52 12.98 9.26 12.98C9.14 12.98 9.02 12.99 8.9 13.02C8.85 13.02 8.79 13.04 8.73 13.06C8.55 13.11 8.4 13.2 8.28 13.33C8.17 13.47 8.11 13.65 8.11 13.89C8.11 14.04 8.16 14.17 8.26 14.27V14.28ZM18.97 16.17H16.93C16.5 16.17 16.15 15.82 16.15 15.39C16.15 14.96 16.5 14.61 16.93 14.61H18.97C19.4 14.61 19.75 14.97 19.75 15.39C19.75 15.81 19.4 16.17 18.97 16.17ZM14.8301 8.09009H21.1701C21.6301 7.63009 21.6301 6.89009 21.1701 6.43009L18.8301 4.09009L14.8301 8.09009Z"
        fill="#FF7E1E" />
</svg>